<mxfile host="app.diagrams.net" modified="2024-01-07T08:05:44.870Z" agent="Mozilla/5.0 (X11; Ubuntu; Linux x86_64; rv:121.0) Gecko/20100101 Firefox/121.0" version="22.1.17" etag="IIE2eZcaa8YJ-uZCtlOs" type="github">
  <diagram name="Page-1" id="wH_xYMjsSIlhgR9r7Gb0">
    <mxGraphModel>
      <root>
        <mxCell id="0" />
        <mxCell id="1" parent="0" />
      </root>
    </mxGraphModel>
  </diagram>
</mxfile>
